<?xml version="1.0" encoding="UTF-8" standalone="no"?>
<!DOCTYPE svg PUBLIC "-//W3C//DTD SVG 1.1//EN"
"http://www.w3.org/Graphics/SVG/1.1/DTD/svg11.dtd">
<svg viewBox="0 0 935 1210" version="1.1" xmlns="http://www.w3.org/2000/svg" xmlns:xlink="http://www.w3.org/1999/xlink">
<defs>
<style type="text/css"><![CDATA[
.g1_36{
fill: none;
stroke: #000000;
stroke-width: 1;
stroke-linecap: butt;
stroke-linejoin: miter;
}
]]></style>
</defs>
<path d="M110.5,737.5l3,0" class="g1_36" />
<path d="M113.5,737.5l3,0" class="g1_36" />
<path d="M116.5,737.5l3,0" class="g1_36" />
<path d="M119.5,737.5l3,0" class="g1_36" />
<path d="M122.5,737.5l3,0" class="g1_36" />
<path d="M125.5,737.5l3,0" class="g1_36" />
<path d="M128.5,737.5l3,0" class="g1_36" />
<path d="M131.5,737.5l3,0" class="g1_36" />
<path d="M134.5,737.5l3,0" class="g1_36" />
<path d="M137.5,737.5l3,0" class="g1_36" />
<path d="M140.5,737.5l3,0" class="g1_36" />
<path d="M143.5,737.5l3,0" class="g1_36" />
<path d="M146.5,737.5l3,0" class="g1_36" />
<path d="M149.5,737.5l3,0" class="g1_36" />
<path d="M152.5,737.5l3,0" class="g1_36" />
<path d="M155.5,737.5l3,0" class="g1_36" />
<path d="M158.5,737.5l3,0" class="g1_36" />
<path d="M161.5,737.5l3,0" class="g1_36" />
<path d="M164.5,737.5l3,0" class="g1_36" />
<path d="M167.5,737.5l3,0" class="g1_36" />
<path d="M170.5,737.5l3,0" class="g1_36" />
<path d="M173.5,737.5l3,0" class="g1_36" />
<path d="M176.5,737.5l4,0" class="g1_36" />
<path d="M180.5,737.5l3,0" class="g1_36" />
<path d="M183.5,737.5l3,0" class="g1_36" />
<path d="M186.5,737.5l3,0" class="g1_36" />
<path d="M189.5,737.5l3,0" class="g1_36" />
<path d="M192.5,737.5l3,0" class="g1_36" />
<path d="M195.5,737.5l3,0" class="g1_36" />
<path d="M198.5,737.5l3,0" class="g1_36" />
<path d="M201.5,737.5l3,0" class="g1_36" />
<path d="M204.5,737.5l3,0" class="g1_36" />
<path d="M207.5,737.5l3,0" class="g1_36" />
<path d="M210.5,737.5l3,0" class="g1_36" />
<path d="M213.5,737.5l3,0" class="g1_36" />
<path d="M216.5,737.5l3,0" class="g1_36" />
<path d="M219.5,737.5l3,0" class="g1_36" />
<path d="M222.5,737.5l3,0" class="g1_36" />
<path d="M225.5,737.5l3,0" class="g1_36" />
<path d="M228.5,737.5l3,0" class="g1_36" />
<path d="M231.5,737.5l3,0" class="g1_36" />
<path d="M234.5,737.5l3,0" class="g1_36" />
<path d="M237.5,737.5l3,0" class="g1_36" />
<path d="M240.5,737.5l3,0" class="g1_36" />
<path d="M243.5,737.5l3,0" class="g1_36" />
<path d="M246.5,737.5l4,0" class="g1_36" />
<path d="M250.5,737.5l3,0" class="g1_36" />
<path d="M253.5,737.5l3,0" class="g1_36" />
<path d="M256.5,737.5l3,0" class="g1_36" />
<path d="M259.5,737.5l3,0" class="g1_36" />
<path d="M262.5,737.5l3,0" class="g1_36" />
<path d="M265.5,737.5l3,0" class="g1_36" />
<path d="M268.5,737.5l3,0" class="g1_36" />
<path d="M271.5,737.5l3,0" class="g1_36" />
<path d="M274.5,737.5l3,0" class="g1_36" />
<path d="M277.5,737.5l3,0" class="g1_36" />
<path d="M110.5,758.5l3,0" class="g1_36" />
<path d="M113.5,758.5l3,0" class="g1_36" />
<path d="M116.5,758.5l3,0" class="g1_36" />
<path d="M119.5,758.5l3,0" class="g1_36" />
<path d="M122.5,758.5l3,0" class="g1_36" />
<path d="M125.5,758.5l3,0" class="g1_36" />
<path d="M128.5,758.5l3,0" class="g1_36" />
<path d="M131.5,758.5l3,0" class="g1_36" />
<path d="M134.5,758.5l3,0" class="g1_36" />
<path d="M137.5,758.5l3,0" class="g1_36" />
<path d="M140.5,758.5l3,0" class="g1_36" />
<path d="M143.5,758.5l3,0" class="g1_36" />
<path d="M146.5,758.5l3,0" class="g1_36" />
<path d="M149.5,758.5l3,0" class="g1_36" />
<path d="M152.5,758.5l3,0" class="g1_36" />
<path d="M155.5,758.5l3,0" class="g1_36" />
<path d="M158.5,758.5l3,0" class="g1_36" />
<path d="M161.5,758.5l3,0" class="g1_36" />
<path d="M164.5,758.5l3,0" class="g1_36" />
<path d="M167.5,758.5l3,0" class="g1_36" />
<path d="M170.5,758.5l3,0" class="g1_36" />
<path d="M173.5,758.5l3,0" class="g1_36" />
<path d="M176.5,758.5l4,0" class="g1_36" />
<path d="M180.5,758.5l3,0" class="g1_36" />
<path d="M183.5,758.5l3,0" class="g1_36" />
<path d="M186.5,758.5l3,0" class="g1_36" />
<path d="M189.5,758.5l3,0" class="g1_36" />
<path d="M192.5,758.5l3,0" class="g1_36" />
<path d="M195.5,758.5l3,0" class="g1_36" />
<path d="M198.5,758.5l3,0" class="g1_36" />
<path d="M201.5,758.5l3,0" class="g1_36" />
<path d="M204.5,758.5l3,0" class="g1_36" />
<path d="M207.5,758.5l3,0" class="g1_36" />
<path d="M210.5,758.5l3,0" class="g1_36" />
<path d="M213.5,758.5l3,0" class="g1_36" />
<path d="M216.5,758.5l3,0" class="g1_36" />
<path d="M219.5,758.5l3,0" class="g1_36" />
<path d="M222.5,758.5l3,0" class="g1_36" />
<path d="M225.5,758.5l3,0" class="g1_36" />
<path d="M228.5,758.5l3,0" class="g1_36" />
<path d="M231.5,758.5l3,0" class="g1_36" />
<path d="M234.5,758.5l3,0" class="g1_36" />
<path d="M237.5,758.5l3,0" class="g1_36" />
<path d="M240.5,758.5l3,0" class="g1_36" />
<path d="M243.5,758.5l3,0" class="g1_36" />
<path d="M246.5,758.5l4,0" class="g1_36" />
<path d="M250.5,758.5l3,0" class="g1_36" />
<path d="M253.5,758.5l3,0" class="g1_36" />
<path d="M256.5,758.5l3,0" class="g1_36" />
<path d="M259.5,758.5l3,0" class="g1_36" />
<path d="M262.5,758.5l3,0" class="g1_36" />
<path d="M265.5,758.5l3,0" class="g1_36" />
<path d="M268.5,758.5l3,0" class="g1_36" />
<path d="M271.5,758.5l3,0" class="g1_36" />
<path d="M274.5,758.5l3,0" class="g1_36" />
<path d="M277.5,758.5l3,0" class="g1_36" />
<path d="M280.5,758.5l3,0" class="g1_36" />
<path d="M283.5,758.5l3,0" class="g1_36" />
<path d="M286.5,758.5l3,0" class="g1_36" />
<path d="M289.5,758.5l3,0" class="g1_36" />
<path d="M292.5,758.5l3,0" class="g1_36" />
<path d="M295.5,758.5l3,0" class="g1_36" />
<path d="M298.5,758.5l3,0" class="g1_36" />
<path d="M301.5,758.5l3,0" class="g1_36" />
<path d="M304.5,758.5l3,0" class="g1_36" />
<path d="M307.5,758.5l3,0" class="g1_36" />
<path d="M310.5,758.5l3,0" class="g1_36" />
</svg>