<?xml version="1.0" encoding="UTF-8" standalone="no"?>
<!DOCTYPE svg PUBLIC "-//W3C//DTD SVG 1.1//EN"
"http://www.w3.org/Graphics/SVG/1.1/DTD/svg11.dtd">
<svg viewBox="0 0 935 1210" version="1.1" xmlns="http://www.w3.org/2000/svg" xmlns:xlink="http://www.w3.org/1999/xlink">
<defs>
<style type="text/css"><![CDATA[
.g1_38{
fill: none;
stroke: #000000;
stroke-width: 1;
stroke-linecap: butt;
stroke-linejoin: miter;
}
]]></style>
</defs>
<path d="M110.5,644.5l3,0" class="g1_38" />
<path d="M113.5,644.5l3,0" class="g1_38" />
<path d="M116.5,644.5l3,0" class="g1_38" />
<path d="M119.5,644.5l3,0" class="g1_38" />
<path d="M122.5,644.5l3,0" class="g1_38" />
<path d="M125.5,644.5l3,0" class="g1_38" />
<path d="M128.5,644.5l3,0" class="g1_38" />
<path d="M131.5,644.5l3,0" class="g1_38" />
<path d="M134.5,644.5l3,0" class="g1_38" />
<path d="M137.5,644.5l3,0" class="g1_38" />
<path d="M140.5,644.5l3,0" class="g1_38" />
<path d="M143.5,644.5l3,0" class="g1_38" />
<path d="M146.5,644.5l3,0" class="g1_38" />
<path d="M149.5,644.5l3,0" class="g1_38" />
<path d="M152.5,644.5l3,0" class="g1_38" />
<path d="M155.5,644.5l3,0" class="g1_38" />
<path d="M158.5,644.5l3,0" class="g1_38" />
<path d="M161.5,644.5l3,0" class="g1_38" />
<path d="M164.5,644.5l3,0" class="g1_38" />
<path d="M167.5,644.5l3,0" class="g1_38" />
<path d="M170.5,644.5l3,0" class="g1_38" />
<path d="M173.5,644.5l3,0" class="g1_38" />
<path d="M176.5,644.5l4,0" class="g1_38" />
<path d="M180.5,644.5l3,0" class="g1_38" />
<path d="M183.5,644.5l3,0" class="g1_38" />
<path d="M186.5,644.5l3,0" class="g1_38" />
<path d="M189.5,644.5l3,0" class="g1_38" />
<path d="M192.5,644.5l3,0" class="g1_38" />
<path d="M195.5,644.5l3,0" class="g1_38" />
<path d="M198.5,644.5l3,0" class="g1_38" />
<path d="M201.5,644.5l3,0" class="g1_38" />
<path d="M204.5,644.5l3,0" class="g1_38" />
<path d="M207.5,644.5l3,0" class="g1_38" />
<path d="M210.5,644.5l3,0" class="g1_38" />
<path d="M213.5,644.5l3,0" class="g1_38" />
<path d="M216.5,644.5l3,0" class="g1_38" />
<path d="M219.5,644.5l3,0" class="g1_38" />
<path d="M222.5,644.5l3,0" class="g1_38" />
<path d="M225.5,644.5l3,0" class="g1_38" />
<path d="M228.5,644.5l3,0" class="g1_38" />
<path d="M231.5,644.5l3,0" class="g1_38" />
<path d="M234.5,644.5l3,0" class="g1_38" />
<path d="M237.5,644.5l3,0" class="g1_38" />
<path d="M240.5,644.5l3,0" class="g1_38" />
<path d="M243.5,644.5l3,0" class="g1_38" />
<path d="M246.5,644.5l4,0" class="g1_38" />
<path d="M250.5,644.5l3,0" class="g1_38" />
<path d="M253.5,644.5l3,0" class="g1_38" />
<path d="M256.5,644.5l3,0" class="g1_38" />
<path d="M259.5,644.5l3,0" class="g1_38" />
<path d="M262.5,644.5l3,0" class="g1_38" />
<path d="M265.5,644.5l3,0" class="g1_38" />
<path d="M268.5,644.5l3,0" class="g1_38" />
<path d="M271.5,644.5l3,0" class="g1_38" />
<path d="M274.5,644.5l3,0" class="g1_38" />
<path d="M277.5,644.5l3,0" class="g1_38" />
</svg>